<?xml version="1.0" standalone="no"?>
<!DOCTYPE svg PUBLIC "-//W3C//DTD SVG 20010904//EN"
 "http://www.w3.org/TR/2001/REC-SVG-20010904/DTD/svg10.dtd">
<svg version="1.0" xmlns="http://www.w3.org/2000/svg"
 width="1280.000000pt" height="1280.000000pt" viewBox="0 0 1280.000000 1280.000000"
 preserveAspectRatio="xMidYMid meet">

<g transform="translate(0.000000,1280.000000) scale(0.100000,-0.100000)"
fill="#000000" stroke="none">
<path d="M5184 11678 l-19 -23 23 19 c21 18 27 26 19 26 -2 0 -12 -10 -23 -22z"/>
<path d="M6410 11666 c0 -2 8 -10 18 -17 15 -13 16 -12 3 4 -13 16 -21 21 -21
13z"/>
<path d="M5140 11645 c-11 -13 -10 -14 4 -9 9 3 16 10 16 15 0 13 -6 11 -20
-6z"/>
<path d="M4993 11554 l-28 -25 33 22 c17 13 32 24 32 26 0 8 -11 1 -37 -23z"/>
<path d="M7145 11550 c-3 -6 1 -7 9 -4 18 7 21 14 7 14 -6 0 -13 -4 -16 -10z"/>
<path d="M5028 11445 c-63 -62 -108 -99 -110 -91 -2 10 -9 5 -22 -12 -11 -15
-13 -21 -6 -14 26 23 29 12 10 -33 -11 -25 -18 -45 -16 -45 3 0 21 29 41 65
20 36 40 65 45 65 10 0 173 161 168 166 -2 1 -51 -44 -110 -101z"/>
<path d="M4895 11530 c-3 -5 -2 -10 4 -10 5 0 13 5 16 10 3 6 2 10 -4 10 -5 0
-13 -4 -16 -10z"/>
<path d="M5034 11508 l-19 -23 23 19 c21 18 27 26 19 26 -2 0 -12 -10 -23 -22z"/>
<path d="M7119 11513 c-13 -16 -12 -17 4 -4 16 13 21 21 13 21 -2 0 -10 -8
-17 -17z"/>
<path d="M4720 11454 c-47 -25 -89 -50 -95 -56 -11 -11 164 80 180 94 17 15 0
8 -85 -38z"/>
<path d="M4829 11429 c-23 -19 -23 -20 -2 -10 12 6 25 16 28 21 10 16 -1 12
-26 -11z"/>
<path d="M7716 11417 c3 -10 9 -15 12 -12 3 3 0 11 -7 18 -10 9 -11 8 -5 -6z"/>
<path d="M7340 11381 c5 -11 15 -23 21 -27 6 -3 3 5 -6 20 -20 30 -30 35 -15
7z"/>
<path d="M4584 11374 c-18 -14 -18 -15 4 -4 12 6 22 13 22 15 0 8 -5 6 -26
-11z"/>
<path d="M5215 11339 c-4 -6 -5 -12 -2 -15 2 -3 7 2 10 11 7 17 1 20 -8 4z"/>
<path d="M7901 11345 c0 -5 11 -30 24 -55 13 -25 24 -40 24 -35 0 6 -11 30
-24 55 -13 25 -24 41 -24 35z"/>
<path d="M5197 11303 c-4 -3 -7 -11 -7 -17 0 -6 5 -5 12 2 6 6 9 14 7 17 -3 3
-9 2 -12 -2z"/>
<path d="M8350 11276 c0 -2 8 -10 18 -17 15 -13 16 -12 3 4 -13 16 -21 21 -21
13z"/>
<path d="M8185 11250 c3 -5 11 -10 16 -10 6 0 7 5 4 10 -3 6 -11 10 -16 10 -6
0 -7 -4 -4 -10z"/>
<path d="M4812 11199 c-16 -25 -33 -69 -27 -69 7 0 47 81 43 86 -2 1 -9 -6
-16 -17z"/>
<path d="M5050 11205 c-7 -9 -8 -15 -2 -15 5 0 12 7 16 15 3 8 4 15 2 15 -2 0
-9 -7 -16 -15z"/>
<path d="M7865 11190 c9 -16 18 -30 21 -30 2 0 -2 14 -11 30 -9 17 -18 30 -21
30 -2 0 2 -13 11 -30z"/>
<path d="M8251 11207 c2 -1 13 -9 24 -17 19 -14 19 -14 6 3 -7 9 -18 17 -24
17 -6 0 -8 -1 -6 -3z"/>
<path d="M4211 11128 c-34 -28 -59 -53 -57 -56 4 -4 126 98 126 105 0 8 -13
-1 -69 -49z"/>
<path d="M7440 11165 c0 -5 5 -17 10 -25 5 -8 10 -10 10 -5 0 6 -5 17 -10 25
-5 8 -10 11 -10 5z"/>
<path d="M4489 11103 c-13 -16 -12 -17 4 -4 16 13 21 21 13 21 -2 0 -10 -8
-17 -17z"/>
<path d="M4791 11034 c0 -11 3 -14 6 -6 3 7 2 16 -1 19 -3 4 -6 -2 -5 -13z"/>
<path d="M5031 11024 c0 -11 3 -14 6 -6 3 7 2 16 -1 19 -3 4 -6 -2 -5 -13z"/>
<path d="M4229 11003 l-24 -28 28 24 c25 23 32 31 24 31 -2 0 -14 -12 -28 -27z"/>
<path d="M4782 10985 c0 -16 2 -22 5 -12 2 9 2 23 0 30 -3 6 -5 -1 -5 -18z"/>
<path d="M8495 10970 c9 -16 18 -30 21 -30 2 0 -2 14 -11 30 -9 17 -18 30 -21
30 -2 0 2 -13 11 -30z"/>
<path d="M4620 10929 c-7 -11 -10 -23 -7 -25 2 -2 9 7 15 21 14 30 7 33 -8 4z"/>
<path d="M8461 10934 c0 -11 3 -14 6 -6 3 7 2 16 -1 19 -3 4 -6 -2 -5 -13z"/>
<path d="M9050 10926 c0 -2 8 -10 18 -17 15 -13 16 -12 3 4 -13 16 -21 21 -21
13z"/>
<path d="M4737 10883 c-9 -21 -26 -69 -37 -108 -12 -38 -24 -77 -27 -85 -2 -8
5 -1 16 15 12 17 24 46 27 65 4 19 15 59 26 89 21 63 18 78 -5 24z"/>
<path d="M8460 10890 c0 -8 5 -22 10 -30 9 -13 10 -13 10 0 0 8 -5 22 -10 30
-9 13 -10 13 -10 0z"/>
<path d="M9095 10870 c10 -11 20 -20 23 -20 3 0 -3 9 -13 20 -10 11 -20 20
-23 20 -3 0 3 -9 13 -20z"/>
<path d="M4309 10863 c-13 -16 -12 -17 4 -4 16 13 21 21 13 21 -2 0 -10 -8
-17 -17z"/>
<path d="M8826 10867 c3 -10 9 -15 12 -12 3 3 0 11 -7 18 -10 9 -11 8 -5 -6z"/>
<path d="M8780 10840 c6 -11 16 -20 22 -20 6 0 3 9 -7 20 -10 11 -20 20 -22
20 -2 0 1 -9 7 -20z"/>
<path d="M8469 10788 c4 -28 6 -29 9 -9 2 13 0 27 -5 32 -6 6 -7 -3 -4 -23z"/>
<path d="M8840 10813 c0 -6 8 -17 18 -24 16 -13 16 -13 2 6 -8 11 -16 22 -17
24 -2 2 -3 0 -3 -6z"/>
<path d="M4971 10793 c0 -12 -5 -25 -11 -28 -5 -3 -10 -16 -10 -28 0 -19 2
-18 15 7 9 17 14 39 12 50 -4 20 -4 20 -6 -1z"/>
<path d="M8535 10726 c11 -35 22 -57 23 -49 4 16 -25 100 -37 107 -4 3 2 -24
14 -58z"/>
<path d="M8716 10765 c4 -8 11 -15 16 -15 6 0 5 6 -2 15 -7 8 -14 15 -16 15
-2 0 -1 -7 2 -15z"/>
<path d="M8611 10754 c0 -11 3 -14 6 -6 3 7 2 16 -1 19 -3 4 -6 -2 -5 -13z"/>
<path d="M8110 10725 c0 -5 5 -17 10 -25 5 -8 10 -10 10 -5 0 6 -5 17 -10 25
-5 8 -10 11 -10 5z"/>
<path d="M8621 10714 c0 -11 3 -14 6 -6 3 7 2 16 -1 19 -3 4 -6 -2 -5 -13z"/>
<path d="M3837 10623 c-20 -31 -36 -58 -34 -59 2 -2 25 22 52 54 27 31 41 50
30 42 -17 -14 -18 -13 -12 3 10 28 3 20 -36 -40z"/>
<path d="M8130 10675 c0 -5 5 -17 10 -25 5 -8 10 -10 10 -5 0 6 -5 17 -10 25
-5 8 -10 11 -10 5z"/>
<path d="M8890 10645 c0 -5 5 -17 10 -25 5 -8 10 -10 10 -5 0 6 -5 17 -10 25
-5 8 -10 11 -10 5z"/>
<path d="M9025 10544 c10 -17 26 -41 37 -55 l20 -24 -17 31 c-10 17 -26 41
-37 55 l-20 24 17 -31z"/>
<path d="M8641 10448 c4 -44 12 -85 17 -90 6 -6 7 6 1 34 -4 24 -8 62 -9 85 0
23 -4 44 -8 47 -4 2 -4 -32 -1 -76z"/>
<path d="M8894 10505 c21 -31 20 -41 -1 -24 -9 8 -2 -6 15 -30 18 -24 32 -50
32 -57 0 -7 5 -16 10 -19 7 -4 9 3 4 22 l-6 28 27 -30 27 -30 -22 30 c-11 17
-37 54 -57 83 -35 51 -60 75 -29 27z"/>
<path d="M4916 10425 c-3 -9 -6 -26 -5 -38 1 -16 4 -12 10 12 10 34 6 55 -5
26z"/>
<path d="M9220 10436 c0 -2 8 -10 18 -17 15 -13 16 -12 3 4 -13 16 -21 21 -21
13z"/>
<path d="M8371 10414 c0 -11 3 -14 6 -6 3 7 2 16 -1 19 -3 4 -6 -2 -5 -13z"/>
<path d="M9060 10395 c0 -5 5 -17 10 -25 5 -8 10 -10 10 -5 0 6 -5 17 -10 25
-5 8 -10 11 -10 5z"/>
<path d="M8260 10362 c0 -15 62 -173 67 -169 3 4 -54 167 -62 175 -3 3 -5 0
-5 -6z"/>
<path d="M9080 10345 c0 -5 5 -17 10 -25 5 -8 10 -10 10 -5 0 6 -5 17 -10 25
-5 8 -10 11 -10 5z"/>
<path d="M8676 10290 c4 -25 10 -52 15 -60 4 -8 5 5 2 30 -3 25 -10 52 -14 60
-6 9 -6 -3 -3 -30z"/>
<path d="M9103 10290 c11 -35 40 -101 43 -98 5 5 -19 70 -34 93 -8 11 -11 13
-9 5z"/>
<path d="M8731 10254 c0 -11 3 -14 6 -6 3 7 2 16 -1 19 -3 4 -6 -2 -5 -13z"/>
<path d="M3530 10227 c-7 -12 -22 -38 -33 -57 l-20 -35 31 35 c30 34 48 67 40
75 -2 2 -10 -6 -18 -18z"/>
<path d="M9080 10232 c0 -7 16 -33 36 -59 34 -44 111 -185 125 -228 6 -17 7
-18 8 -2 1 10 -6 32 -15 48 -8 17 -17 38 -19 47 -5 27 -53 113 -57 102 -2 -5
-20 16 -40 47 -21 31 -38 51 -38 45z"/>
<path d="M8670 10215 c0 -8 4 -15 10 -15 5 0 7 7 4 15 -4 8 -8 15 -10 15 -2 0
-4 -7 -4 -15z"/>
<path d="M8701 10190 c-1 -21 62 -236 66 -224 1 5 -13 61 -32 124 -18 63 -34
108 -34 100z"/>
<path d="M4061 10178 c0 -9 -4 -25 -7 -35 -5 -17 -5 -17 6 0 6 10 9 25 7 35
-4 15 -5 15 -6 0z"/>
<path d="M4601 10164 c0 -11 3 -14 6 -6 3 7 2 16 -1 19 -3 4 -6 -2 -5 -13z"/>
<path d="M9220 10175 c0 -2 18 -33 40 -67 22 -35 40 -58 40 -53 0 6 -16 36
-36 68 -32 51 -44 66 -44 52z"/>
<path d="M8367 10149 c4 -13 8 -18 11 -10 2 7 -1 18 -6 23 -8 8 -9 4 -5 -13z"/>
<path d="M8530 10108 c0 -4 9 -22 20 -40 11 -18 20 -28 20 -23 0 6 -9 24 -20
40 -11 17 -20 27 -20 23z"/>
<path d="M3615 10069 c-4 -6 -5 -12 -2 -15 2 -3 7 2 10 11 7 17 1 20 -8 4z"/>
<path d="M4050 10060 c0 -11 2 -20 4 -20 2 0 6 9 9 20 3 11 1 20 -4 20 -5 0
-9 -9 -9 -20z"/>
<path d="M9337 9965 c20 -41 39 -73 41 -71 4 5 -66 146 -73 146 -3 0 12 -34
32 -75z"/>
<path d="M8619 9975 c17 -33 31 -51 31 -40 0 6 -10 21 -21 35 -13 17 -17 18
-10 5z"/>
<path d="M4061 9944 c0 -11 3 -14 6 -6 3 7 2 16 -1 19 -3 4 -6 -2 -5 -13z"/>
<path d="M8771 9934 c0 -11 3 -14 6 -6 3 7 2 16 -1 19 -3 4 -6 -2 -5 -13z"/>
<path d="M8450 9925 c0 -7 36 -137 81 -288 11 -38 23 -67 25 -64 3 3 -18 83
-46 179 -47 159 -60 195 -60 173z"/>
<path d="M8781 9894 c0 -11 3 -14 6 -6 3 7 2 16 -1 19 -3 4 -6 -2 -5 -13z"/>
<path d="M8625 9871 c-6 -10 4 -203 11 -210 2 -2 4 46 4 107 0 108 -2 123 -15
103z"/>
<path d="M9380 9872 c0 -11 27 -42 37 -42 3 0 -2 10 -13 23 -10 12 -20 24 -21
26 -2 2 -3 -1 -3 -7z"/>
<path d="M9280 9825 c0 -5 5 -17 10 -25 5 -8 10 -10 10 -5 0 6 -5 17 -10 25
-5 8 -10 11 -10 5z"/>
<path d="M9541 9765 c0 -5 6 -21 14 -35 8 -14 14 -20 14 -15 0 6 -6 21 -14 35
-8 14 -14 21 -14 15z"/>
<path d="M9481 9755 c0 -5 8 -26 19 -45 11 -19 19 -30 19 -25 0 6 -8 26 -19
45 -11 19 -19 31 -19 25z"/>
<path d="M9321 9715 c1 -19 18 -51 18 -35 0 8 -4 22 -9 30 -5 8 -9 11 -9 5z"/>
<path d="M9451 9685 c0 -5 8 -26 19 -45 11 -19 19 -30 19 -25 0 6 -8 26 -19
45 -11 19 -19 31 -19 25z"/>
<path d="M4312 9640 c0 -14 2 -19 5 -12 2 6 2 18 0 25 -3 6 -5 1 -5 -13z"/>
<path d="M8643 9590 c0 -30 2 -43 4 -27 2 15 2 39 0 55 -2 15 -4 2 -4 -28z"/>
<path d="M9656 9607 c3 -10 9 -15 12 -12 3 3 0 11 -7 18 -10 9 -11 8 -5 -6z"/>
<path d="M9671 9575 c0 -5 6 -21 14 -35 8 -14 14 -20 14 -15 0 6 -6 21 -14 35
-8 14 -14 21 -14 15z"/>
<path d="M8652 9500 c0 -19 2 -27 5 -17 2 9 2 25 0 35 -3 9 -5 1 -5 -18z"/>
<path d="M8851 9494 c0 -11 3 -14 6 -6 3 7 2 16 -1 19 -3 4 -6 -2 -5 -13z"/>
<path d="M8960 9465 c0 -5 5 -17 10 -25 5 -8 10 -10 10 -5 0 6 -5 17 -10 25
-5 8 -10 11 -10 5z"/>
<path d="M8861 9444 c0 -11 3 -14 6 -6 3 7 2 16 -1 19 -3 4 -6 -2 -5 -13z"/>
<path d="M3231 9434 c0 -11 3 -14 6 -6 3 7 2 16 -1 19 -3 4 -6 -2 -5 -13z"/>
<path d="M9724 9440 c7 -28 89 -200 93 -197 2 2 -19 51 -47 108 -28 57 -49 97
-46 89z"/>
<path d="M8617 9419 c4 -13 8 -18 11 -10 2 7 -1 18 -6 23 -8 8 -9 4 -5 -13z"/>
<path d="M8981 9415 c0 -5 6 -21 14 -35 8 -14 14 -20 14 -15 0 6 -6 21 -14 35
-8 14 -14 21 -14 15z"/>
<path d="M8871 9394 c0 -11 3 -14 6 -6 3 7 2 16 -1 19 -3 4 -6 -2 -5 -13z"/>
<path d="M9601 9400 c0 -8 4 -22 9 -30 12 -18 12 -2 0 25 -6 13 -9 15 -9 5z"/>
<path d="M8631 9380 c0 -8 4 -22 9 -30 12 -18 12 -2 0 25 -6 13 -9 15 -9 5z"/>
<path d="M8675 9265 c7 -32 45 -114 57 -121 6 -4 -17 55 -51 126 -11 25 -11
24 -6 -5z"/>
<path d="M9020 9285 c0 -5 5 -17 10 -25 5 -8 10 -10 10 -5 0 6 -5 17 -10 25
-5 8 -10 11 -10 5z"/>
<path d="M8890 9271 c0 -6 4 -13 10 -16 6 -3 7 1 4 9 -7 18 -14 21 -14 7z"/>
<path d="M8611 9164 c0 -11 3 -14 6 -6 3 7 2 16 -1 19 -3 4 -6 -2 -5 -13z"/>
<path d="M9730 9174 c0 -6 7 -19 16 -30 14 -18 14 -18 3 6 -14 31 -19 36 -19
24z"/>
<path d="M3097 9133 c-4 -3 -7 -11 -7 -17 0 -6 5 -5 12 2 6 6 9 14 7 17 -3 3
-9 2 -12 -2z"/>
<path d="M8777 9079 c10 -17 24 -36 32 -42 8 -7 2 7 -14 31 -32 49 -45 57 -18
11z"/>
<path d="M9280 9090 c6 -11 13 -20 16 -20 2 0 0 9 -6 20 -6 11 -13 20 -16 20
-2 0 0 -9 6 -20z"/>
<path d="M9780 9104 c0 -7 9 -22 21 -35 16 -19 18 -20 10 -4 -17 34 -31 51
-31 39z"/>
<path d="M9642 9060 c0 -8 6 -31 13 -50 7 -19 13 -28 13 -20 0 8 -6 31 -13 50
-7 19 -13 28 -13 20z"/>
<path d="M9300 9050 c0 -5 5 -10 11 -10 5 0 7 5 4 10 -3 6 -8 10 -11 10 -2 0
-4 -4 -4 -10z"/>
<path d="M10020 8970 c11 -16 26 -33 32 -36 7 -4 -1 9 -16 29 -34 44 -46 50
-16 7z"/>
<path d="M8896 8947 c3 -10 9 -15 12 -12 3 3 0 11 -7 18 -10 9 -11 8 -5 -6z"/>
<path d="M9380 8910 c6 -11 13 -20 16 -20 2 0 0 9 -6 20 -6 11 -13 20 -16 20
-2 0 0 -9 6 -20z"/>
<path d="M9930 8924 c1 -13 29 -48 34 -43 2 2 -4 15 -15 28 -10 13 -19 19 -19
15z"/>
<path d="M9436 8837 c3 -10 9 -15 12 -12 3 3 0 11 -7 18 -10 9 -11 8 -5 -6z"/>
<path d="M8955 8790 c9 -16 18 -30 21 -30 2 0 -2 14 -11 30 -9 17 -18 30 -21
30 -2 0 2 -13 11 -30z"/>
<path d="M9160 8776 c0 -2 7 -9 15 -16 9 -7 15 -8 15 -2 0 5 -7 12 -15 16 -8
3 -15 4 -15 2z"/>
<path d="M9457 8708 c9 -29 17 -59 19 -65 2 -7 9 -13 16 -12 10 0 10 2 1 6 -7
2 -13 16 -13 29 0 25 -25 94 -34 94 -2 0 3 -24 11 -52z"/>
<path d="M10200 8726 c0 -2 8 -10 18 -17 15 -13 16 -12 3 4 -13 16 -21 21 -21
13z"/>
<path d="M8840 8711 c0 -6 4 -13 10 -16 6 -3 7 1 4 9 -7 18 -14 21 -14 7z"/>
<path d="M10230 8686 c0 -2 8 -10 18 -17 15 -13 16 -12 3 4 -13 16 -21 21 -21
13z"/>
<path d="M3946 8665 c-3 -9 -6 -22 -5 -28 0 -7 5 -1 10 12 5 13 8 26 5 28 -2
2 -6 -3 -10 -12z"/>
<path d="M9056 8657 c3 -10 9 -15 12 -12 3 3 0 11 -7 18 -10 9 -11 8 -5 -6z"/>
<path d="M9870 8634 c0 -6 7 -19 16 -30 14 -18 14 -18 3 6 -14 31 -19 36 -19
24z"/>
<path d="M9475 8609 c4 -6 13 -8 20 -5 8 3 15 -5 19 -18 3 -13 13 -22 25 -22
18 0 17 2 -5 25 -25 25 -71 41 -59 20z"/>
<path d="M10051 8584 c0 -11 3 -14 6 -6 3 7 2 16 -1 19 -3 4 -6 -2 -5 -13z"/>
<path d="M2716 8555 c-9 -26 -7 -32 5 -12 6 10 9 21 6 23 -2 3 -7 -2 -11 -11z"/>
<path d="M3786 8525 c-9 -26 -7 -32 5 -12 6 10 9 21 6 23 -2 3 -7 -2 -11 -11z"/>
<path d="M3916 8523 c-6 -14 -5 -15 5 -6 7 7 10 15 7 18 -3 3 -9 -2 -12 -12z"/>
<path d="M2696 8505 c-9 -26 -7 -32 5 -12 6 10 9 21 6 23 -2 3 -7 -2 -11 -11z"/>
<path d="M2672 8445 c-17 -37 -14 -45 4 -12 9 16 14 31 11 33 -2 2 -9 -7 -15
-21z"/>
<path d="M3746 8375 c-9 -26 -7 -32 5 -12 6 10 9 21 6 23 -2 3 -7 -2 -11 -11z"/>
<path d="M9720 8376 c0 -8 5 -18 10 -21 6 -3 10 1 10 9 0 8 -4 18 -10 21 -5 3
-10 -1 -10 -9z"/>
<path d="M9108 8365 c6 -11 21 -29 34 -40 22 -19 22 -19 -2 10 -40 48 -43 51
-32 30z"/>
<path d="M2626 8313 c-6 -14 -5 -15 5 -6 7 7 10 15 7 18 -3 3 -9 -2 -12 -12z"/>
<path d="M9729 8288 c-3 -13 -1 -41 2 -63 5 -35 6 -33 8 23 1 63 -4 81 -10 40z"/>
<path d="M10106 8297 c3 -10 9 -15 12 -12 3 3 0 11 -7 18 -10 9 -11 8 -5 -6z"/>
<path d="M9215 8256 c10 -14 19 -26 22 -26 7 0 -17 39 -28 46 -6 3 -3 -5 6
-20z"/>
<path d="M2566 8223 c-6 -14 -5 -15 5 -6 7 7 10 15 7 18 -3 3 -9 -2 -12 -12z"/>
<path d="M4833 8228 c-15 -20 -25 -38 -20 -38 3 0 12 11 21 25 17 26 16 35 -1
13z"/>
<path d="M9951 8184 c0 -11 3 -14 6 -6 3 7 2 16 -1 19 -3 4 -6 -2 -5 -13z"/>
<path d="M7630 8169 c0 -5 5 -7 10 -4 6 3 10 8 10 11 0 2 -4 4 -10 4 -5 0 -10
-5 -10 -11z"/>
<path d="M2494 8089 c-19 -39 -34 -73 -32 -75 2 -2 21 30 41 71 20 41 35 75
32 75 -3 0 -21 -32 -41 -71z"/>
<path d="M9742 8140 c0 -14 2 -19 5 -12 2 6 2 18 0 25 -3 6 -5 1 -5 -13z"/>
<path d="M9961 8144 c0 -11 3 -14 6 -6 3 7 2 16 -1 19 -3 4 -6 -2 -5 -13z"/>
<path d="M7730 8109 c0 -5 5 -7 10 -4 6 3 10 8 10 11 0 2 -4 4 -10 4 -5 0 -10
-5 -10 -11z"/>
<path d="M7875 8090 c-3 -6 1 -7 9 -4 18 7 21 14 7 14 -6 0 -13 -4 -16 -10z"/>
<path d="M9861 7950 c1 -8 5 -26 9 -40 l8 -25 1 25 c0 14 -4 32 -9 40 -9 13
-10 13 -9 0z"/>
<path d="M3866 7925 c-9 -26 -7 -32 5 -12 6 10 9 21 6 23 -2 3 -7 -2 -11 -11z"/>
<path d="M9881 7864 c0 -11 3 -14 6 -6 3 7 2 16 -1 19 -3 4 -6 -2 -5 -13z"/>
<path d="M10130 7801 c0 -6 4 -13 10 -16 6 -3 7 1 4 9 -7 18 -14 21 -14 7z"/>
<path d="M9781 7774 c0 -11 3 -14 6 -6 3 7 2 16 -1 19 -3 4 -6 -2 -5 -13z"/>
<path d="M9190 7771 c0 -6 4 -13 10 -16 6 -3 7 1 4 9 -7 18 -14 21 -14 7z"/>
<path d="M3556 7745 c-3 -9 -6 -24 -5 -33 0 -9 5 -4 10 12 9 32 6 48 -5 21z"/>
<path d="M9791 7724 c0 -11 3 -14 6 -6 3 7 2 16 -1 19 -3 4 -6 -2 -5 -13z"/>
<path d="M9906 7717 c3 -10 9 -15 12 -12 3 3 0 11 -7 18 -10 9 -11 8 -5 -6z"/>
<path d="M9270 7682 c0 -12 58 -102 66 -102 6 0 4 3 -38 69 -15 25 -28 40 -28
33z"/>
<path d="M9501 7600 c0 -8 4 -22 9 -30 12 -18 12 -2 0 25 -6 13 -9 15 -9 5z"/>
<path d="M9991 7594 c0 -11 3 -14 6 -6 3 7 2 16 -1 19 -3 4 -6 -2 -5 -13z"/>
<path d="M3611 7414 c0 -11 3 -14 6 -6 3 7 2 16 -1 19 -3 4 -6 -2 -5 -13z"/>
<path d="M10391 7414 c0 -11 3 -14 6 -6 3 7 2 16 -1 19 -3 4 -6 -2 -5 -13z"/>
<path d="M10383 7355 c0 -22 2 -30 4 -17 2 12 2 30 0 40 -3 9 -5 -1 -4 -23z"/>
<path d="M2971 7324 c0 -11 3 -14 6 -6 3 7 2 16 -1 19 -3 4 -6 -2 -5 -13z"/>
<path d="M10101 7304 c0 -11 3 -14 6 -6 3 7 2 16 -1 19 -3 4 -6 -2 -5 -13z"/>
<path d="M9576 7247 c3 -10 9 -15 12 -12 3 3 0 11 -7 18 -10 9 -11 8 -5 -6z"/>
<path d="M9342 7170 c0 -14 2 -19 5 -12 2 6 2 18 0 25 -3 6 -5 1 -5 -13z"/>
<path d="M9845 6990 c3 -5 8 -10 11 -10 2 0 4 5 4 10 0 6 -5 10 -11 10 -5 0
-7 -4 -4 -10z"/>
<path d="M10404 6925 c-7 -28 -10 -52 -8 -54 7 -8 25 54 22 78 -2 18 -6 12
-14 -24z"/>
<path d="M9302 6840 c0 -19 2 -27 5 -17 2 9 2 25 0 35 -3 9 -5 1 -5 -18z"/>
<path d="M9806 6815 c-3 -9 -6 -26 -5 -38 1 -16 4 -12 10 12 10 34 6 55 -5 26z"/>
<path d="M9792 6720 c0 -14 2 -19 5 -12 2 6 2 18 0 25 -3 6 -5 1 -5 -13z"/>
<path d="M10070 6519 c0 -5 5 -7 10 -4 6 3 10 8 10 11 0 2 -4 4 -10 4 -5 0
-10 -5 -10 -11z"/>
<path d="M10297 6458 c-9 -23 -15 -43 -13 -45 2 -2 11 15 20 38 9 23 15 43 13
45 -2 2 -11 -15 -20 -38z"/>
<path d="M2821 6394 c0 -11 3 -14 6 -6 3 7 2 16 -1 19 -3 4 -6 -2 -5 -13z"/>
<path d="M10262 6375 c-17 -37 -14 -45 4 -12 9 16 14 31 11 33 -2 2 -9 -7 -15
-21z"/>
<path d="M2822 6350 c0 -14 2 -19 5 -12 2 6 2 18 0 25 -3 6 -5 1 -5 -13z"/>
<path d="M10112 6255 c-17 -37 -14 -45 4 -12 9 16 14 31 11 33 -2 2 -9 -7 -15
-21z"/>
<path d="M9661 6178 c1 -68 6 -61 11 15 2 26 0 47 -4 47 -5 0 -7 -28 -7 -62z"/>
<path d="M2822 6170 c0 -14 2 -19 5 -12 2 6 2 18 0 25 -3 6 -5 1 -5 -13z"/>
<path d="M10061 6143 c-10 -26 -10 -27 4 -9 8 11 15 23 15 28 0 15 -7 8 -19
-19z"/>
<path d="M3021 6034 c0 -11 3 -14 6 -6 3 7 2 16 -1 19 -3 4 -6 -2 -5 -13z"/>
<path d="M9949 5943 c-13 -16 -12 -17 4 -4 9 7 17 15 17 17 0 8 -8 3 -21 -13z"/>
<path d="M9695 5570 c-3 -5 -1 -10 4 -10 6 0 11 5 11 10 0 6 -2 10 -4 10 -3 0
-8 -4 -11 -10z"/>
<path d="M7580 4670 c-6 -12 -9 -24 -7 -27 3 -2 11 5 17 17 6 12 9 24 7 27 -3
2 -11 -5 -17 -17z"/>
</g>
</svg>
