<?xml version="1.0" standalone="no"?>
<!DOCTYPE svg PUBLIC "-//W3C//DTD SVG 20010904//EN"
 "http://www.w3.org/TR/2001/REC-SVG-20010904/DTD/svg10.dtd">
<svg version="1.0" xmlns="http://www.w3.org/2000/svg"
 width="1269.000000pt" height="373.000000pt" viewBox="0 0 1269.000000 373.000000"
 preserveAspectRatio="xMidYMid meet">

<g transform="translate(0.000000,373.000000) scale(0.100000,-0.100000)"
fill="#000000" stroke="none">
<path d="M2657 3715 c-88 -17 -215 -64 -333 -123 -83 -42 -266 -161 -319 -207
-22 -20 -18 -18 15 5 349 249 628 342 893 297 257 -44 385 -155 395 -343 6
-115 -31 -227 -126 -371 -8 -13 -12 -23 -9 -23 9 0 105 164 132 225 68 152 41
335 -62 426 -117 102 -379 153 -586 114z"/>
<path d="M1949 3343 c-13 -16 -12 -17 4 -4 9 7 17 15 17 17 0 8 -8 3 -21 -13z"/>
<path d="M1909 3313 c-13 -16 -12 -17 4 -4 9 7 17 15 17 17 0 8 -8 3 -21 -13z"/>
<path d="M5855 3309 c-50 -12 -74 -35 -141 -135 -137 -206 -248 -520 -334
-944 -36 -178 -89 -502 -105 -640 l-6 -55 -67 -24 c-37 -13 -73 -26 -79 -29
-10 -3 -13 30 -13 144 0 426 -123 688 -341 728 -34 6 -37 9 -43 53 -3 25 -6
82 -6 127 0 175 -34 459 -77 639 -21 90 -27 106 -39 96 -15 -13 -20 -124 -5
-115 27 17 75 -335 88 -635 l6 -159 -25 0 c-68 0 -184 -42 -294 -106 -63 -37
-112 -69 -110 -72 3 -2 42 18 88 46 97 59 177 87 271 97 l67 7 0 -264 c0 -146
-3 -340 -7 -431 l-6 -166 -101 -49 c-206 -101 -343 -131 -525 -113 -180 18
-259 76 -247 182 7 63 58 193 107 270 22 35 29 51 16 36 -41 -49 -116 -180
-137 -239 -58 -167 5 -253 205 -279 188 -24 344 8 558 115 70 36 127 59 127
53 4 -236 45 -655 76 -774 42 -164 120 -220 207 -150 22 17 32 38 43 92 47
224 104 656 104 790 l0 53 77 26 c42 14 78 25 79 23 2 -1 -3 -65 -11 -142 -45
-459 -45 -1210 1 -1344 4 -13 7 -13 19 0 11 12 11 31 -1 129 -21 166 -29 616
-15 860 11 188 38 510 44 516 8 8 345 107 425 124 127 28 249 31 287 6 24 -16
29 -16 42 -3 14 13 13 17 -9 31 -40 26 -108 30 -220 11 -97 -16 -332 -79 -462
-125 -33 -11 -61 -19 -63 -17 -5 5 33 287 63 462 75 446 174 796 297 1040 65
131 120 211 149 218 104 25 177 15 219 -29 22 -23 24 -34 23 -107 -1 -63 -7
-100 -29 -157 -40 -110 -104 -241 -180 -365 -36 -60 -60 -103 -52 -95 25 27
143 222 189 315 97 192 131 351 94 424 -29 55 -114 75 -221 50z m-1021 -1027
c61 -33 109 -88 151 -177 60 -125 94 -316 95 -525 l0 -116 -105 -43 c-57 -23
-110 -50 -117 -58 -10 -13 -6 -12 27 2 108 46 188 75 192 71 7 -6 -14 -275
-33 -421 -17 -140 -71 -463 -80 -476 -3 -5 -22 -9 -44 -9 -80 0 -124 94 -159
338 -26 180 -41 366 -41 506 l0 113 55 37 c30 20 55 39 55 41 0 3 -24 -10 -52
-30 l-53 -35 -3 297 c-2 164 0 349 3 410 l7 113 26 -6 c15 -4 49 -18 76 -32z"/>
<path d="M4849 1583 c-13 -16 -12 -17 4 -4 9 7 17 15 17 17 0 8 -8 3 -21 -13z"/>
<path d="M1869 3283 c-13 -16 -12 -17 4 -4 9 7 17 15 17 17 0 8 -8 3 -21 -13z"/>
<path d="M1829 3253 c-13 -16 -12 -17 4 -4 9 7 17 15 17 17 0 8 -8 3 -21 -13z"/>
<path d="M1789 3223 c-13 -16 -12 -17 4 -4 16 13 21 21 13 21 -2 0 -10 -8 -17
-17z"/>
<path d="M1744 3188 l-19 -23 23 19 c21 18 27 26 19 26 -2 0 -12 -10 -23 -22z"/>
<path d="M1470 2895 c-45 -66 -88 -162 -100 -225 -27 -140 21 -260 158 -392
141 -136 302 -223 734 -397 152 -61 362 -153 467 -205 l191 -93 -98 -7 c-53
-4 -176 -16 -272 -26 -96 -10 -223 -22 -282 -26 -78 -5 -111 -11 -120 -22 -12
-13 0 -14 102 -8 63 4 198 16 300 26 102 10 241 22 310 25 116 6 127 5 150
-14 14 -11 19 -21 12 -21 -38 0 -1191 -133 -1308 -150 -668 -98 -1019 -192
-1367 -366 -150 -75 -337 -206 -337 -235 0 -20 64 -78 118 -107 33 -17 101
-44 153 -59 93 -26 98 -27 459 -31 986 -11 1726 86 2361 308 96 34 217 74 269
90 112 34 120 31 120 -59 0 -52 1 -54 17 -38 13 13 17 32 15 80 l-1 63 202 57
c111 31 221 61 243 67 23 5 47 16 53 24 16 19 -60 2 -313 -73 l-196 -58 -21
23 c-11 12 -34 28 -50 34 -33 14 -32 11 -18 46 28 76 -47 201 -186 307 l-85
65 32 7 c109 21 139 30 150 42 6 7 8 16 5 19 -3 3 -74 8 -159 11 l-153 6 -165
82 c-193 96 -306 146 -565 248 -687 272 -937 487 -895 772 11 70 51 170 90
226 12 16 19 29 16 29 -3 0 -19 -20 -36 -45z m1710 -1355 c12 -8 9 -10 -12
-10 -14 0 -32 -2 -40 -5 -7 -3 -22 1 -33 9 -19 14 -17 15 25 16 25 0 52 -5 60
-10z m-34 -101 c96 -67 158 -124 197 -181 36 -52 60 -127 48 -145 -3 -6 -34
-13 -68 -16 -84 -9 -236 -67 -219 -84 2 -3 18 3 36 12 17 9 64 23 102 31 80
17 155 7 198 -25 l24 -19 -84 -26 c-211 -63 -340 -83 -340 -50 0 14 -3 14 -15
4 -18 -15 -20 -47 -2 -53 6 -2 28 -3 47 -1 110 13 -284 -100 -530 -151 -496
-102 -917 -138 -1630 -139 -479 -1 -486 -1 -575 23 -118 31 -200 69 -255 119
-52 47 -59 36 75 126 229 154 564 277 980 361 370 74 661 115 1305 185 206 22
420 46 475 54 159 22 164 21 231 -25z"/>
<path d="M3009 2813 c-13 -16 -12 -17 4 -4 9 7 17 15 17 17 0 8 -8 3 -21 -13z"/>
<path d="M2885 2724 c-179 -130 -437 -271 -657 -358 -120 -47 -351 -118 -425
-130 -22 -4 -49 -14 -60 -22 -16 -14 -14 -15 24 -10 58 8 263 68 380 112 121
45 285 120 406 186 131 72 452 288 427 287 -3 0 -45 -29 -95 -65z"/>
<path d="M5750 2470 c-12 -16 -19 -30 -16 -30 2 0 14 14 26 30 12 17 19 30 16
30 -2 0 -14 -13 -26 -30z"/>
<path d="M6500 2208 c-30 -17 -143 -78 -250 -136 -207 -112 -243 -133 -237
-138 6 -6 510 267 532 287 25 24 22 23 -45 -13z"/>
<path d="M11280 2184 c-95 -137 -146 -344 -165 -674 -6 -84 -12 -120 -24 -134
-15 -18 -15 -19 2 -13 15 6 17 2 13 -26 -3 -17 -13 -97 -22 -177 -10 -87 -23
-161 -35 -185 -14 -32 -19 -75 -24 -225 -3 -102 -8 -268 -11 -370 -6 -164 -5
-183 8 -172 20 16 28 89 38 372 10 264 71 797 93 812 6 5 24 11 39 14 29 7 61
34 39 34 -6 0 -28 -7 -48 -15 -20 -8 -37 -14 -39 -12 -2 1 1 72 6 157 19 299
50 438 133 595 19 36 33 65 31 65 -2 0 -17 -21 -34 -46z"/>
<path d="M3989 1883 c-13 -16 -12 -17 4 -4 9 7 17 15 17 17 0 8 -8 3 -21 -13z"/>
<path d="M3959 1843 c-13 -16 -12 -17 4 -4 16 13 21 21 13 21 -2 0 -10 -8 -17
-17z"/>
<path d="M6142 1677 c-17 -19 -50 -178 -66 -318 -15 -124 -36 -472 -36 -597 0
-58 2 -64 14 -52 11 12 17 73 26 265 12 277 29 447 60 604 11 57 19 106 17
108 -2 2 -9 -2 -15 -10z"/>
<path d="M7418 1593 c-14 -2 -32 -11 -38 -19 -20 -23 33 -18 61 6 13 10 20 19
14 18 -5 0 -22 -3 -37 -5z"/>
<path d="M10889 1523 c-13 -16 -12 -17 4 -4 16 13 21 21 13 21 -2 0 -10 -8
-17 -17z"/>
<path d="M12429 1523 c-13 -16 -12 -17 4 -4 16 13 21 21 13 21 -2 0 -10 -8
-17 -17z"/>
<path d="M8485 1469 c-260 -222 -474 -346 -582 -337 -34 3 -38 6 -46 42 -6 24
-6 74 1 134 11 93 12 97 49 130 l38 34 -41 -31 c-23 -17 -53 -31 -67 -31 -14
0 -51 -13 -82 -30 -65 -34 -275 -170 -275 -177 0 -3 10 1 23 9 123 82 176 113
229 138 83 39 100 39 62 -2 -23 -27 -24 -29 -3 -10 14 12 28 22 32 22 4 0 4
-51 1 -113 -9 -147 -2 -162 67 -154 64 8 200 72 318 151 111 74 375 290 349
286 -2 -1 -34 -28 -73 -61z"/>
<path d="M7200 1398 c-87 -60 -199 -126 -280 -165 -117 -57 -250 -135 -250
-148 0 -2 26 12 58 31 31 20 107 60 169 89 98 48 433 261 448 286 9 14 9 14
-145 -93z"/>
<path d="M7959 1483 c-13 -16 -12 -17 4 -4 16 13 21 21 13 21 -2 0 -10 -8 -17
-17z"/>
<path d="M10760 1419 c-193 -162 -394 -279 -495 -287 -74 -6 -80 7 -71 156 6
107 8 115 34 139 l27 25 -29 -21 c-16 -12 -39 -21 -53 -21 -13 0 -47 -12 -76
-26 -58 -30 -277 -170 -277 -178 0 -3 38 19 83 49 109 70 222 128 244 123 16
-3 18 -15 14 -131 -2 -91 0 -131 9 -142 55 -66 383 114 655 358 71 64 32 38
-65 -44z"/>
<path d="M12300 1419 c-189 -160 -394 -279 -495 -287 -74 -6 -80 7 -71 160 l7
118 -28 0 c-16 0 -68 -22 -118 -51 -94 -54 -235 -146 -235 -154 0 -3 37 20 83
49 106 70 230 131 250 123 12 -5 14 -25 10 -134 -5 -113 -4 -130 11 -143 41
-33 199 29 380 150 117 79 331 254 304 250 -2 -1 -46 -37 -98 -81z"/>
<path d="M10269 1463 c-13 -16 -12 -17 4 -4 16 13 21 21 13 21 -2 0 -10 -8
-17 -17z"/>
<path d="M11809 1463 c-13 -16 -12 -17 4 -4 16 13 21 21 13 21 -2 0 -10 -8
-17 -17z"/>
<path d="M11764 1428 l-19 -23 23 19 c21 18 27 26 19 26 -2 0 -12 -10 -23 -22z"/>
<path d="M10139 1353 c-13 -16 -12 -17 4 -4 9 7 17 15 17 17 0 8 -8 3 -21 -13z"/>
<path d="M11674 1348 l-19 -23 23 19 c21 18 27 26 19 26 -2 0 -12 -10 -23 -22z"/>
<path d="M10089 1313 c-13 -16 -12 -17 4 -4 16 13 21 21 13 21 -2 0 -10 -8
-17 -17z"/>
<path d="M11629 1313 c-13 -16 -12 -17 4 -4 16 13 21 21 13 21 -2 0 -10 -8
-17 -17z"/>
<path d="M6491 1298 c-5 -13 -6 -93 -2 -178 l6 -155 38 1 c25 1 47 9 60 23
l21 21 -34 -10 c-50 -14 -50 -15 -50 43 0 108 -13 277 -22 277 -5 0 -12 -10
-17 -22z"/>
<path d="M7729 1293 c-13 -16 -12 -17 4 -4 16 13 21 21 13 21 -2 0 -10 -8 -17
-17z"/>
<path d="M11569 1263 c-13 -16 -12 -17 4 -4 16 13 21 21 13 21 -2 0 -10 -8
-17 -17z"/>
<path d="M7679 1253 c-13 -16 -12 -17 4 -4 16 13 21 21 13 21 -2 0 -10 -8 -17
-17z"/>
<path d="M9631 1255 c-184 -40 -444 -148 -496 -207 -22 -24 -23 -27 -5 -11 86
75 432 194 568 195 70 1 105 14 80 29 -18 12 -73 10 -147 -6z"/>
<path d="M8750 1241 c-14 -28 10 -191 38 -254 34 -77 81 -82 156 -16 28 24 40
29 49 20 16 -16 80 -14 103 4 18 13 17 14 -17 15 -19 0 -44 6 -55 14 -17 14
-23 11 -59 -24 -58 -55 -78 -59 -119 -18 -36 36 -50 80 -62 202 -7 72 -17 88
-34 57z"/>
<path d="M9979 1223 c-13 -16 -12 -17 4 -4 16 13 21 21 13 21 -2 0 -10 -8 -17
-17z"/>
<path d="M11519 1223 c-13 -16 -12 -17 4 -4 9 7 17 15 17 17 0 8 -8 3 -21 -13z"/>
<path d="M7624 1208 l-19 -23 23 19 c12 11 22 21 22 23 0 8 -8 2 -26 -19z"/>
<path d="M9929 1183 c-13 -16 -12 -17 4 -4 16 13 21 21 13 21 -2 0 -10 -8 -17
-17z"/>
<path d="M11469 1183 c-13 -16 -12 -17 4 -4 9 7 17 15 17 17 0 8 -8 3 -21 -13z"/>
<path d="M7574 1168 l-19 -23 23 19 c12 11 22 21 22 23 0 8 -8 2 -26 -19z"/>
<path d="M9879 1143 c-13 -16 -12 -17 4 -4 16 13 21 21 13 21 -2 0 -10 -8 -17
-17z"/>
<path d="M11419 1143 c-13 -16 -12 -17 4 -4 16 13 21 21 13 21 -2 0 -10 -8
-17 -17z"/>
<path d="M7529 1133 c-13 -16 -12 -17 4 -4 16 13 21 21 13 21 -2 0 -10 -8 -17
-17z"/>
<path d="M9839 1113 c-13 -16 -12 -17 4 -4 9 7 17 15 17 17 0 8 -8 3 -21 -13z"/>
<path d="M11374 1108 l-19 -23 23 19 c21 18 27 26 19 26 -2 0 -12 -10 -23 -22z"/>
<path d="M7479 1093 c-13 -16 -12 -17 4 -4 9 7 17 15 17 17 0 8 -8 3 -21 -13z"/>
<path d="M9733 1037 c-76 -53 -97 -56 -69 -10 17 28 17 28 -9 -2 -70 -80 -49
-86 56 -14 68 47 110 80 99 78 -3 0 -38 -23 -77 -52z"/>
<path d="M9869 1073 c-13 -16 -12 -17 4 -4 16 13 21 21 13 21 -2 0 -10 -8 -17
-17z"/>
<path d="M11329 1073 c-13 -16 -12 -17 4 -4 16 13 21 21 13 21 -2 0 -10 -8
-17 -17z"/>
<path d="M7439 1063 c-13 -16 -12 -17 4 -4 9 7 17 15 17 17 0 8 -8 3 -21 -13z"/>
<path d="M7339 1053 c-13 -16 -12 -17 4 -4 16 13 21 21 13 21 -2 0 -10 -8 -17
-17z"/>
<path d="M11252 1023 c-58 -40 -74 -38 -48 4 17 28 17 28 -9 -2 -64 -74 -49
-86 36 -29 51 35 89 65 79 63 -3 0 -29 -16 -58 -36z"/>
<path d="M6619 1033 c-13 -16 -12 -17 4 -4 9 7 17 15 17 17 0 8 -8 3 -21 -13z"/>
<path d="M7367 1018 c-46 -30 -69 -32 -51 -5 5 7 -1 1 -13 -13 -25 -27 -29
-40 -12 -40 11 0 129 78 129 85 0 7 1 7 -53 -27z"/>
</g>
</svg>
